<svg height="512" viewBox="0 0 44 58" width="512" xmlns="http://www.w3.org/2000/svg"><g id="036---Office-Safe" fill="none"><rect id="Rectangle-path" fill="#90bae1" height="58" rx="2" width="44"/><path id="Rectangle-path" d="m-3 11h50v36h-50z" fill="#b0d3f0" transform="matrix(0 1 -1 0 51 7)"/><path id="Shape" d="m34 34h-18c-1.1045695 0-2 .8954305-2 2v4h4.25c.9642263.0054632 1.7445368.7857737 1.75 1.75v.5c-.0054632.9642263-.7857737 1.7445368-1.75 1.75h-4.25v4c0 1.1045695.8954305 2 2 2h18c1.1045695 0 2-.8954305 2-2v-12c0-1.1045695-.8954305-2-2-2z" fill="#84b5cb"/><path id="Shape" d="m40 55h-36c-.55228475 0-1-.4477153-1-1v-50c0-.55228475.44771525-1 1-1h36c.5522847 0 1 .44771525 1 1v50c0 .5522847-.4477153 1-1 1zm-35-2h34v-48h-34z" fill="#84b5cb"/><path id="Shape" d="m32 42c-.000709.9091229-.311089 1.7908842-.88 2.5-.7658123.9383023-1.9089126 1.4878698-3.12 1.5-2.209139 0-4-1.790861-4-4s1.790861-4 4-4 4 1.790861 4 4z" fill="#5d4c72"/><rect id="Rectangle-path" fill="#556080" height="4" rx="1.75" width="12" x="8" y="40"/><path id="Shape" d="m31.12 44.5c-.420232.5296157-.971877.9399017-1.6 1.19l-2.32-3.09c-.3313708-.4418278-.2418278-1.0686292.2-1.4s1.0686292-.2418278 1.4.2z" fill="#3d324c"/><rect id="Rectangle-path" fill="#84b5cb" height="16" rx="2" width="12" x="8" y="8"/><g fill="#7d6599"><circle id="Oval" cx="12" cy="12" r="1"/><circle id="Oval" cx="16" cy="12" r="1"/><circle id="Oval" cx="12" cy="16" r="1"/><circle id="Oval" cx="16" cy="16" r="1"/><circle id="Oval" cx="12" cy="20" r="1"/><circle id="Oval" cx="16" cy="20" r="1"/></g></g></svg>