<?xml version="1.0" encoding="UTF-8" standalone="no"?>
<!DOCTYPE svg PUBLIC "-//W3C//DTD SVG 1.1//EN" "http://www.w3.org/Graphics/SVG/1.1/DTD/svg11.dtd">
<svg version="1.1" xmlns="http://www.w3.org/2000/svg" xmlns:xlink="http://www.w3.org/1999/xlink" preserveAspectRatio="xMidYMid meet" viewBox="0 0 640 640" width="640" height="640"><defs><path d="M426.32 232.17C426.32 174.12 426.32 141.88 426.32 135.43C426.32 124.74 417.66 116.08 406.98 116.08C396.29 116.08 387.63 124.74 387.63 135.43C387.63 145.1 387.63 222.49 387.63 232.17C387.63 253.54 404.95 270.86 426.32 270.86C431.48 270.86 457.28 270.86 503.71 270.86L503.71 232.17L426.32 232.17Z" id="a2DnDVBXjl"></path><path d="M271.55 641.03L155.46 320.52L271.55 0C288.96 0 298.63 0 300.57 0C305.91 0 310.24 4.33 310.24 9.67C310.24 71.84 310.24 569.19 310.24 631.36C310.24 636.7 305.91 641.03 300.57 641.03C296.7 641.03 287.02 641.03 271.55 641.03Z" id="a2c1IBzetA"></path><path d="M0.69 9.67C0.69 4.33 5.02 0 10.36 0C27.77 0 114.83 0 271.55 0L271.55 38.69L155.46 185.09L271.55 331.48L271.55 447.56L155.46 524.95L271.55 602.34L271.55 641.03C114.83 641.03 27.77 641.03 10.36 641.03C5.02 641.03 0.69 636.7 0.69 631.36C0.69 631.36 0.69 71.84 0.69 9.67Z" id="a5GWVvdqB"></path><path d="M232.85 602.34L155.46 524.95L232.85 447.56L271.55 447.56L271.55 602.34L232.85 602.34Z" id="bO0xW5Msq"></path><path d="M39.38 447.56L232.85 447.56L232.85 602.34L39.38 602.34L39.38 447.56Z" id="b1gtiJd583"></path><path d="M232.85 331.48L155.46 185.09L232.85 38.69L271.55 38.69L271.55 331.48L232.85 331.48Z" id="ao6cYv63M"></path><path d="M39.38 38.69L39.38 331.48L232.85 331.48L232.85 116.08L213.51 96.74L232.85 77.39L232.85 38.69L39.38 38.69Z" id="aADknv9qp"></path><path d="M194.16 116.08L145.79 96.74L194.16 77.39L232.85 77.39L232.85 116.08L194.16 116.08Z" id="b1j4D6MU0N"></path><path d="M78.08 77.39L194.16 77.39L194.16 116.08L78.08 116.08L78.08 77.39Z" id="cFQuxVIXW"></path><path d="M58.73 370.17C48.04 370.17 39.38 378.84 39.38 389.52C39.38 400.21 48.04 408.87 58.73 408.87C69.41 408.87 78.08 400.21 78.08 389.52C78.08 378.84 69.41 370.17 58.73 370.17Z" id="a6CzlIFzSP"></path><path d="M533.16 192.83C565.22 192.83 591.2 166.84 591.2 134.78C591.2 102.73 565.22 76.74 533.16 76.74C533.16 99.96 533.16 181.22 533.16 192.83Z" id="i7lfdRy7by"></path><path d="M533.16 76.74C501.11 76.74 475.12 102.73 475.12 134.78C475.12 166.84 501.11 192.83 533.16 192.83C543.85 192.83 552.51 166.84 552.51 134.78C552.51 102.73 543.85 76.74 533.16 76.74Z" id="b4mIiWIJXe"></path><path d="M562.61 232.17C585.83 350.18 598.73 415.75 601.31 428.86C601.31 439.54 609.96 447.56 620.65 447.56C631.33 447.56 640 439.54 640 428.86C640 413.06 640 286.66 640 270.86C640 249.58 622.59 232.17 601.31 232.17C596.15 232.17 583.25 232.17 562.61 232.17Z" id="e2bNWp2CJD"></path><path d="M601.31 270.86C601.31 249.58 583.89 232.17 562.61 232.17C556.72 232.17 509.6 232.17 503.71 232.17C482.43 232.17 465.02 249.58 465.02 270.86C465.02 305.44 465.02 582.06 465.02 616.64C465.02 630.11 475.94 641.03 489.42 641.03C502.89 641.03 513.81 630.11 513.81 616.64C513.81 604.12 513.81 541.53 513.81 428.86L552.51 428.86C552.51 541.53 552.51 604.12 552.51 616.64C552.51 630.11 563.43 641.03 576.91 641.03C590.38 641.03 601.31 630.11 601.31 616.64C601.31 547.48 601.31 340.01 601.31 270.86Z" id="ejUmbMaS"></path><path d="M348.93 125.76C343.59 125.76 339.26 130.09 339.26 135.43C339.26 140.77 343.59 145.1 348.93 145.1C354.28 145.1 358.61 140.77 358.61 135.43C358.61 130.09 354.28 125.76 348.93 125.76Z" id="eYlw5IkWL"></path><path d="M365.93 84.71C360.59 84.71 356.26 89.05 356.26 94.39C356.26 99.73 360.59 104.06 365.93 104.06C371.28 104.06 375.61 99.73 375.61 94.39C375.61 89.05 371.28 84.71 365.93 84.71Z" id="ewCUVYvji"></path><path d="M406.98 67.71C401.63 67.71 397.3 72.05 397.3 77.39C397.3 82.73 401.63 87.06 406.98 87.06C412.32 87.06 416.65 82.73 416.65 77.39C416.65 72.05 412.32 67.71 406.98 67.71Z" id="c3iGGh4jJ"></path></defs><g><g><g><use xlink:href="#a2DnDVBXjl" opacity="1" fill="#7aa3ff" fill-opacity="1"></use><g><use xlink:href="#a2DnDVBXjl" opacity="1" fill-opacity="0" stroke="#000000" stroke-width="1" stroke-opacity="0"></use></g></g><g><use xlink:href="#a2c1IBzetA" opacity="1" fill="#aa6f51" fill-opacity="1"></use><g><use xlink:href="#a2c1IBzetA" opacity="1" fill-opacity="0" stroke="#000000" stroke-width="1" stroke-opacity="0"></use></g></g><g><use xlink:href="#a5GWVvdqB" opacity="1" fill="#b88567" fill-opacity="1"></use><g><use xlink:href="#a5GWVvdqB" opacity="1" fill-opacity="0" stroke="#000000" stroke-width="1" stroke-opacity="0"></use></g></g><g><use xlink:href="#bO0xW5Msq" opacity="1" fill="#995e49" fill-opacity="1"></use><g><use xlink:href="#bO0xW5Msq" opacity="1" fill-opacity="0" stroke="#000000" stroke-width="1" stroke-opacity="0"></use></g></g><g><use xlink:href="#b1gtiJd583" opacity="1" fill="#aa6f51" fill-opacity="1"></use><g><use xlink:href="#b1gtiJd583" opacity="1" fill-opacity="0" stroke="#000000" stroke-width="1" stroke-opacity="0"></use></g></g><g><use xlink:href="#ao6cYv63M" opacity="1" fill="#c7e3ff" fill-opacity="1"></use><g><use xlink:href="#ao6cYv63M" opacity="1" fill-opacity="0" stroke="#000000" stroke-width="1" stroke-opacity="0"></use></g></g><g><use xlink:href="#aADknv9qp" opacity="1" fill="#e5f2ff" fill-opacity="1"></use><g><use xlink:href="#aADknv9qp" opacity="1" fill-opacity="0" stroke="#000000" stroke-width="1" stroke-opacity="0"></use></g></g><g><use xlink:href="#b1j4D6MU0N" opacity="1" fill="#ffbb6e" fill-opacity="1"></use><g><use xlink:href="#b1j4D6MU0N" opacity="1" fill-opacity="0" stroke="#000000" stroke-width="1" stroke-opacity="0"></use></g></g><g><use xlink:href="#cFQuxVIXW" opacity="1" fill="#ffd478" fill-opacity="1"></use><g><use xlink:href="#cFQuxVIXW" opacity="1" fill-opacity="0" stroke="#000000" stroke-width="1" stroke-opacity="0"></use></g></g><g><use xlink:href="#a6CzlIFzSP" opacity="1" fill="#ffd478" fill-opacity="1"></use><g><use xlink:href="#a6CzlIFzSP" opacity="1" fill-opacity="0" stroke="#000000" stroke-width="1" stroke-opacity="0"></use></g></g><g><use xlink:href="#i7lfdRy7by" opacity="1" fill="#597dcf" fill-opacity="1"></use><g><use xlink:href="#i7lfdRy7by" opacity="1" fill-opacity="0" stroke="#000000" stroke-width="1" stroke-opacity="0"></use></g></g><g><use xlink:href="#b4mIiWIJXe" opacity="1" fill="#6a90e7" fill-opacity="1"></use><g><use xlink:href="#b4mIiWIJXe" opacity="1" fill-opacity="0" stroke="#000000" stroke-width="1" stroke-opacity="0"></use></g></g><g><use xlink:href="#e2bNWp2CJD" opacity="1" fill="#597dcf" fill-opacity="1"></use><g><use xlink:href="#e2bNWp2CJD" opacity="1" fill-opacity="0" stroke="#000000" stroke-width="1" stroke-opacity="0"></use></g></g><g><use xlink:href="#ejUmbMaS" opacity="1" fill="#6a90e7" fill-opacity="1"></use><g><use xlink:href="#ejUmbMaS" opacity="1" fill-opacity="0" stroke="#000000" stroke-width="1" stroke-opacity="0"></use></g></g><g><use xlink:href="#eYlw5IkWL" opacity="1" fill="#c7e3ff" fill-opacity="1"></use><g><use xlink:href="#eYlw5IkWL" opacity="1" fill-opacity="0" stroke="#000000" stroke-width="1" stroke-opacity="0"></use></g></g><g><use xlink:href="#ewCUVYvji" opacity="1" fill="#c7e3ff" fill-opacity="1"></use><g><use xlink:href="#ewCUVYvji" opacity="1" fill-opacity="0" stroke="#000000" stroke-width="1" stroke-opacity="0"></use></g></g><g><use xlink:href="#c3iGGh4jJ" opacity="1" fill="#c7e3ff" fill-opacity="1"></use><g><use xlink:href="#c3iGGh4jJ" opacity="1" fill-opacity="0" stroke="#000000" stroke-width="1" stroke-opacity="0"></use></g></g></g></g></svg>